<svg id="Capa_1" data-name="Capa 1" xmlns="http://www.w3.org/2000/svg" viewBox="0 0 200 200"><defs><style>.cls-1{fill:#fff;}</style></defs><title>Mesa de trabajo 4 copia</title><path class="cls-1" d="M99.17,94.47c.34,4.89.79,9.78,1.19,14.68,0,.47-.12,1.1.13,1.41.59.75,1.29,1.67,2.11,1.89.44.12,1.37-1,1.82-1.69a3.57,3.57,0,0,0,.27-2q-.41-7.19-.88-14.36H99.17Z"/><path class="cls-1" d="M102.43,83.28c-1.36,1.17-2.7,1.78-3,2.73a11.76,11.76,0,0,0-.24,4.52h4.64c-.09-1.26-.16-2.53-.25-3.8A18.48,18.48,0,0,0,102.43,83.28Z"/></svg>