<svg id="Capa_1" data-name="Capa 1" xmlns="http://www.w3.org/2000/svg" viewBox="0 0 200 200"><defs><style>.cls-1{fill:#fff;}</style></defs><title>Mesa de trabajo 4 copia 2</title><path class="cls-1" d="M117.3,87.64a18,18,0,0,1-3.57.69c-7.42,0-14.85,0-22.27-.16-.88,0-1.73-1.12-2.6-1.72,1-.69,2-1.94,3-2,7.9-.27,15.81-.32,23.72-.42a4.55,4.55,0,0,1,1.42.24C118.58,84.82,118.86,86.31,117.3,87.64Z"/><path class="cls-1" d="M106.42,82.28a17.81,17.81,0,0,1,.69,3.57c0,7.42,0,14.85-.17,22.27,0,.88-1.11,1.73-1.71,2.6-.69-1-1.94-2-2-3-.28-7.9-.32-15.81-.42-23.72a4.27,4.27,0,0,1,.23-1.42C103.59,81,105.09,80.72,106.42,82.28Z"/><path class="cls-1" d="M92.82,92.84a18.2,18.2,0,0,1,3.49-1c6.06-.2,12.13-.32,18.19-.43a3.58,3.58,0,0,1,2,.35c.7.47,1.76,1.45,1.62,1.88-.25.82-1.2,1.48-2,2-.32.24-.93,0-1.41.07-4.91.21-9.81.47-14.72.62A11.83,11.83,0,0,1,95.43,96C94.49,95.61,93.94,94.25,92.82,92.84Z"/></svg>