<svg id="Capa_1" data-name="Capa 1" xmlns="http://www.w3.org/2000/svg" viewBox="0 0 200 200"><defs><style>.cls-1{fill:#fff;}</style></defs><title>Mesa de trabajo 4 copia 5</title><path class="cls-1" d="M108.89,98.11c-.67,0-1,0-1-.29a6.44,6.44,0,0,1-1.5-.45C102,95.3,97.61,93.2,93.29,91h0c-.72,5.46.21,10.79,1.16,16.13.35,2,1.23,2.84,3.23,2.87q12.25.18,24.51.21c1.57,0,2.09-.54,2.13-2.12.08-2.56.15-5.13.06-7.69a65,65,0,0,0-.6-7.64c-4.61,1.78-9.26,3.45-13.91,5.16A3,3,0,0,1,108.89,98.11Z"/><path class="cls-1" d="M108.94,96.35a7.14,7.14,0,0,1,1.52-.83c4.37-1.57,8.75-3.1,13.16-4.56-.08-1.68-.21-4.14-.85-4.47-1.22-.63-12.48-.22-12.56.09a29.87,29.87,0,0,0-5.36,0c-3.36.64-6.66,1.6-10,2.41a2.11,2.11,0,0,0-.85.41c4.85,2.13,9.65,4.39,14.46,6.62A3.24,3.24,0,0,1,108.94,96.35Z"/></svg>