<svg id="Capa_1" data-name="Capa 1" xmlns="http://www.w3.org/2000/svg" viewBox="0 0 200 200"><defs><style>.cls-1{fill:#fff;}</style></defs><title>Mesa de trabajo 4 copia 4</title><path class="cls-1" d="M118.64,90.53a29.84,29.84,0,0,0-.06-5.36c-.63-3.37-1.59-6.67-2.41-10a2,2,0,0,0-2-1.56c-5.46-.73-10.8.21-16.13,1.16-2,.35-2.84,1.23-2.87,3.22Q95,90.25,95,102.51c0,1.56.55,2.08,2.13,2.13,2.56.07,5.12.15,7.68.06a64.1,64.1,0,0,0,8.08-.66c1-.16,5.41-.07,5.86-1C119.35,101.87,118.94,90.61,118.64,90.53Zm-1.56,3.53a12.12,12.12,0,0,1-2.5.5c-5.19.07-10.38.11-15.57,0-.61,0-1.21-.77-1.81-1.18a3.7,3.7,0,0,1,2.12-.51c5.53-.24,11.07-.32,16.6-.44a2.78,2.78,0,0,1,1,.16C118,93,118.18,93.12,117.08,94.06Zm0-4.65a12.77,12.77,0,0,1-2.5.51c-5.19.07-10.38.1-15.57,0-.61,0-1.21-.77-1.81-1.18a3.69,3.69,0,0,1,2.12-.5c5.53-.25,11.07-.33,16.6-.45a3.31,3.31,0,0,1,1,.16C118,88.33,118.18,88.48,117.08,89.41Zm0-4.64a12.12,12.12,0,0,1-2.5.5c-5.19.07-10.38.1-15.57,0-.61,0-1.21-.76-1.81-1.17a3.62,3.62,0,0,1,2.12-.51c5.53-.24,11.07-.32,16.6-.44a3,3,0,0,1,1,.15C118,83.68,118.18,83.83,117.08,84.77Z"/></svg>