<svg id="Capa_1" data-name="Capa 1" xmlns="http://www.w3.org/2000/svg" viewBox="0 0 200 200"><defs><style>.cls-1{fill:#fff;}</style></defs><title>Mesa de trabajo 4</title><path class="cls-1" d="M101.57,85.26a17.6,17.6,0,0,1-1.68,3.22c-4.6,5.82-9.25,11.62-14,17.31-.57.68-2,.66-3,1,.08-1.21-.28-2.76.33-3.59C88,96.81,92.86,90.59,97.71,84.35a4.08,4.08,0,0,1,1.07-1C100.16,82.5,101.5,83.21,101.57,85.26Z"/><path class="cls-1" d="M103.47,88.94a18.28,18.28,0,0,1,2.76,2.36c3.53,4.93,7,9.91,10.44,14.89a3.56,3.56,0,0,1,.8,1.82c0,.84-.23,2.26-.67,2.39a4.9,4.9,0,0,1-2.79-.5c-.37-.14-.55-.76-.84-1.15-2.9-4-5.83-7.89-8.68-11.89a12.2,12.2,0,0,1-2.18-4C102.09,91.87,102.92,90.65,103.47,88.94Z"/><path class="cls-1" d="M99.16,97.33c2.69,3.6,5.09,6.58,7.18,9.77.5.78,0,2.23-.11,3.38-1-.26-2.33-.2-3-.83a59.87,59.87,0,0,1-4.43-5.17,64.07,64.07,0,0,1-4.35,5.25c-.57.58-1.84.45-2.79.65-.11-.9-.65-2.09-.27-2.64C93.77,104.31,96.36,101,99.16,97.33Z"/></svg>