<svg id="Capa_1" data-name="Capa 1" xmlns="http://www.w3.org/2000/svg" viewBox="0 0 200 200"><defs><style>.cls-1{fill:#fff;}</style></defs><title>Mesa de trabajo 4 copia 3</title><path class="cls-1" d="M121.46,102.77c-.63-3.77-1.34-7.53-2-11.29-.08-.43-.1-1.22,0-1.27,1-.33.72-1.12.52-1.6-.68-1.68-1.51-3.29-2.3-4.92,0,0-.16,0-.48,0,.07.58.1,1.14.2,1.69s.25,1.18.4,1.87a6.16,6.16,0,0,1-4.47-2.66c-.78-1-1.47-2.12-2.24-3.16-.93-1.25-2-2.45-.54-4a.55.55,0,0,0,.1-.25,2.39,2.39,0,0,0-.84-2.84c-.59-.38-1.72-.87-2-.62a5.91,5.91,0,0,0-1.44,2.48,11.36,11.36,0,0,0-.23,2.61c-.12-.08-.54,3.22-1.14,4.94a30.38,30.38,0,0,1-1.66,3.33c-1.09,2.18-1.83,4.52-2.94,6.7-.11.23-.17.64,0,.63a6.29,6.29,0,0,1-.52,1A32.75,32.75,0,0,0,97,99a35.89,35.89,0,0,1-7.27,8.46c-1,.84-.87,1.77.34,2.61a7.4,7.4,0,0,0,.81-.62l11.27-11.24a16.48,16.48,0,0,1,1.59-1.54,3.07,3.07,0,0,1,4.64.41A9.68,9.68,0,0,1,109.74,99a22.22,22.22,0,0,1,2.59,8.83c0,.36.48.69.73,1a5.61,5.61,0,0,0,1.12-1.11,2.27,2.27,0,0,0,0-1.22c-.35-2.65-.69-5.3-1.09-7.94a8.4,8.4,0,0,0-.6-2.08c-.63-1.48-2-1.74-3.4-2-1.05-.22-1.46-.59-1.16-1.78.58-2.27.94-4.6,1.48-6.88a7.73,7.73,0,0,1,1-1.79c.52.42,1.22.75,1.53,1.29,1.18,2,2.58,3.55,5.1,3.78a1.83,1.83,0,0,1,1.21,1.21c.52,2.29.87,4.61,1.28,6.92.47,2.61.92,5.22,1.39,7.83h.48A11.58,11.58,0,0,0,121.46,102.77Z"/></svg>