<svg id="Capa_1" data-name="Capa 1" xmlns="http://www.w3.org/2000/svg" viewBox="0 0 200 200"><defs><style>.cls-1{fill:#9dab13;}</style></defs><title>iconos web rama</title><path class="cls-1" d="M87.07,97.52a88.59,88.59,0,0,1,15.6.91,29.27,29.27,0,0,0,3.75.24c4.66.2,9.32.46,14,.55,2.34,0,4.68-.24,7-.35.67,0,1.42-.08,1.53.89s-.33,1.3-1.37,1.53a47.81,47.81,0,0,1-12,1.26c-4-.17-8,0-11.85-.47-4.42-.57-8.88-.44-13.27-1a118,118,0,0,0-15.6-.68,23.17,23.17,0,0,0-2.88.26c-.53.07-.91,0-.92-.61s-.11-1.08.72-1.2C77.16,98.07,82.55,97.11,87.07,97.52Z"/></svg>