<?xml version="1.0" encoding="UTF-8"?>
<svg id="Layer_1" xmlns="http://www.w3.org/2000/svg" version="1.1" viewBox="0 0 502.1 376.3">
  <!-- Generator: Adobe Illustrator 29.8.3, SVG Export Plug-In . SVG Version: 2.1.1 Build 3)  -->
  <defs>
    <style>
      .st0 {
        fill: #fff;
      }
    </style>
  </defs>
  <g>
    <polygon class="st0" points="257.91 187.87 271.02 187.87 271.02 161.29 297.83 161.29 297.83 150.25 271.02 150.25 271.02 133.69 300.01 133.69 300.01 122.3 257.91 122.3 257.91 187.87"/>
    <path class="st0" d="M333.71,121.38c-19.55,0-29.91,11.62-29.91,33.7s10.35,33.7,29.91,33.7,30.02-11.62,30.02-33.7-10.35-33.7-30.02-33.7ZM333.71,177.74c-11.39,0-16.45-7.02-16.45-22.66s5.06-22.66,16.45-22.66,16.45,7.02,16.45,22.66-5.06,22.66-16.45,22.66Z"/>
    <path class="st0" d="M414,169.35c-2.65,5.75-7.25,8.4-14.49,8.4-11.62,0-16.91-7.02-16.91-22.66s5.18-22.66,16.91-22.66,11.73,2.53,14.38,8.17l.35.81,10.47-5.18-.46-.81c-4.95-9.66-12.88-14.15-25.08-14.15-19.67,0-30.14,11.62-30.14,33.7s10.47,33.7,30.14,33.7,20.59-4.72,25.54-14.72l.46-.81-10.93-4.72-.35.81h0l.11.12Z"/>
    <path class="st0" d="M458.4,121.38c-19.55,0-29.91,11.62-29.91,33.7s10.35,33.7,29.91,33.7,30.02-11.62,30.02-33.7-10.35-33.7-30.02-33.7ZM458.4,177.74c-11.39,0-16.45-7.02-16.45-22.66s5.06-22.66,16.45-22.66,16.45,7.02,16.45,22.66-5.06,22.66-16.45,22.66Z"/>
  </g>
  <g>
    <path class="st0" d="M355.11,205.12h-14.38l-23.93,65.45h13.57l5.18-14.72h24.73l5.18,14.72h14.15l-24.16-64.88-.23-.58h-.11ZM356.6,245.03h-17.6l8.74-25.08,8.86,25.08h0Z"/>
    <path class="st0" d="M425.85,252.05c-2.76,5.75-7.48,8.4-14.84,8.4-11.96,0-17.25-7.02-17.25-22.66s5.29-22.66,17.25-22.66,11.96,2.65,14.72,8.17l.35.81,10.58-5.18-.46-.81c-5.06-9.66-13.11-14.15-25.54-14.15-20.13,0-30.71,11.62-30.71,33.7s10.7,33.7,30.83,33.7,21.05-4.72,26-14.72l.46-.81-11.04-4.72-.35.81h0v.12Z"/>
    <polygon class="st0" points="457.37 259.41 457.37 242.85 486.24 242.85 486.24 231.81 457.37 231.81 457.37 216.39 488.42 216.39 488.42 205.12 444.02 205.12 444.02 270.57 489 270.57 489 259.41 457.37 259.41"/>
  </g>
  <path class="st0" d="M285.63,205.12c-20.7,0-25.08,10.47-25.08,19.21s4.26,14.95,12.54,18.52c.69.46,1.38.81,2.3,1.04l-18.4,25.08h14.95l16.22-22.89h8.4v24.5h13v-65.45h-23.93ZM296.56,235.03h-12.19c-7.36,0-10.7-3.11-10.7-10.01s2.07-9.09,12.54-9.09h10.35v18.98h0v.12Z"/>
  <rect class="st0" x="215.01" y="113.56" width="4.37" height="164.72"/>
  <g>
    <path class="st0" d="M168.19,278.85H60.52c-3.68,0-6.56-2.88-6.56-6.56s2.99-6.56,6.56-6.56h107.67c.58,0,1.15-.46,1.15-1.04l4.49-31.98c.92-6.44,1.38-13,1.38-19.55v-15.76c0-5.52-.35-11.04-1.04-16.56l-4.26-35.31c0-.58-.58-1.04-1.15-1.04h-28.3c-7.25,0-13.23-5.98-13.23-13.23v-3.34s0-.12-.12-.12h-47.05s-.12,0-.12.12v2.99c0,7.25-5.98,13.23-13.23,13.23h-27.84c-.58,0-1.15.46-1.15,1.04l-4.49,33.82c-.81,5.98-1.15,12.19-1.15,18.29v28.07c0,3.57-2.88,6.56-6.56,6.56s-6.56-2.99-6.56-6.56v-28.07c0-6.67.46-13.34,1.27-20.01l4.49-33.82c.92-7.13,7.02-12.42,14.15-12.42h27.84s.12,0,.12-.12v-2.99c0-7.25,5.98-13.23,13.23-13.23h47.05c7.25,0,13.23,5.98,13.23,13.23v3.34s0,.12.12.12h28.3c7.25,0,13.34,5.41,14.26,12.65l4.26,35.31c.69,5.98,1.04,12.08,1.04,18.06v15.76c0,7.13-.46,14.26-1.5,21.4l-4.49,31.98c-1.04,7.02-7.13,12.31-14.15,12.31h0Z"/>
    <path class="st0" d="M104,239.28c-15.41,0-28.07-12.54-28.07-28.07s12.54-28.07,28.07-28.07,28.07,12.54,28.07,28.07-12.54,28.07-28.07,28.07ZM104,196.49c-8.05,0-14.72,6.56-14.72,14.72s6.56,14.72,14.72,14.72,14.72-6.56,14.72-14.72-6.56-14.72-14.72-14.72Z"/>
  </g>
</svg>