<?xml version="1.0" encoding="UTF-8"?>
<svg id="Layer_1" xmlns="http://www.w3.org/2000/svg" version="1.1" viewBox="0 0 1920 940.1">
  <!-- Generator: Adobe Illustrator 29.1.0, SVG Export Plug-In . SVG Version: 2.1.0 Build 142)  -->
  <defs>
    <style>
      .st0 {
        fill: #273337;
      }
    </style>
  </defs>
  <path class="st0" d="M101.1,136.5c1.3,0,2.7,0,4-.1.3-9.3.7-18.6.8-27.9,0-.7-2.3-2-3.1-1.8-1,.2-2.1,1.8-2.2,2.9-.5,6.4-1,12.8-1,19.3,0,2.5,1.1,5.1,1.6,7.7M69,106.9c-7.2,5.9-3.7,26.3,4.8,30.6-1.7-11-3.3-20.8-4.8-30.6M412.7,129.5c-.7-1.1-1.9-3.1-3.1-5.1-1.1,2.1-2.9,4.1-3.3,6.4-1.1,5.9-1.8,11.8-2.2,17.8-.1,1.8,1.1,3.7,1.7,5.6,1.4-1.6,3.6-3,3.9-4.8,1.3-6.1,1.9-12.3,3-19.9M425.4,154.6c.8.2,1.5.3,2.3.5,7-5.2,10.2-26.2,3.4-30.6-2,10.4-3.9,20.3-5.7,30.1M448.8,133.2c-.9-1.3-1.7-2.7-2.6-4.1-1.3,1.3-3.3,2.3-3.8,3.9-2.3,6.5-4.4,13.1-6.2,19.7-.4,1.6.5,3.5.7,5.2,1.6-1.1,4-1.8,4.6-3.2,2.6-6.9,4.8-13.9,7.3-21.5M82.8,118.3c0-2.3.2-6.6-.1-10.8-.1-1.1-2-2.1-3-3.2-.9.8-2.7,1.7-2.7,2.5.2,8.2.5,16.4,1.2,24.6,0,1,2.1,2,3.3,2.9.8-1.4,2.1-2.8,2.1-4.2.1-3.3-.4-6.7-.8-11.9M416.2,154.4c2.5-.5,3.7-.5,3.8-.7,1.7-9.7,3.4-19.3,4.9-29,0-.5-1.7-1.6-2.7-1.6-.9,0-2.4,1.1-2.5,1.8-1.2,9.6-2.3,19.2-3.5,29.5M90.3,136.6c1.7-2.3,2.9-3.2,2.9-4.1.2-8.6.4-17.2.3-25.9,0-1.1-1.7-2.2-2.6-3.3-1.1,1.3-3.1,2.5-3.1,3.8-.4,7.9-.4,15.9-.3,23.9,0,1.5,1.4,2.9,2.8,5.6M279.2,134.1c5.3,0,10.2-4.5,10.3-9.4,0-4.9-4.7-9.4-10.1-9.6-5.7-.1-10.8,4.5-10.6,9.8.2,4.9,5,9.2,10.4,9.2M239.7,118.1c0-5-4.8-9.3-10.3-9.4-5.6,0-10.6,4.8-10.4,10,.3,5,5.1,9.1,10.7,8.9,5.5-.2,10.1-4.5,10-9.6M254.5,166.5c3.7-1.8,10.2-4.5,16.1-8.1,1.4-.9.8-4.5,1.1-6.9-2.4-.2-5.3-1.2-7.1-.3-14.8,7-14.6,7-27.8-2.5-1.6-1.1-5.5-1.4-6.9-.4-1.3.9-1.7,4.8-.6,6.2,5.2,6.9,12.3,11.3,25.2,12M240.7,336.3c-7,8.5-13.6,16.1-19.6,24-1,1.3.4,4,.7,6.1,2.4-.4,5.6-.2,7-1.5,4.1-3.7,7.4-8.1,11-12.1,3.9,4.3,7.1,8.5,11.2,11.9,1.7,1.4,5,1.3,7.5,1.9.2-2.6,1.5-6,.3-7.8-5.2-7.4-11.3-14.2-18.1-22.5M255.2,284.6c-1.6,2.8-3.5,4.8-3.7,6.9-.1,2,1.4,4.2,2.7,6,8,11.4,15.9,22.9,24.5,34,1.6,2.1,5.9,2.5,8.9,3.6.1-2.6.3-5.2.4-7.8,0-.6-.5-1.3-.9-1.8-8.4-12-16.7-24-25.2-35.9-1.2-1.7-3.6-2.7-6.8-5.1M251.5,317c-1.4,4-3.5,6.8-2.9,9,.8,3.3,3.2,6.4,5.5,9.2,7.2,9.2,14.6,18.3,21.9,27.5.7.9,1.2,2.3,2.1,2.6,2.3.8,5,1.7,7,1.2,1.1-.3,1.7-3.6,1.7-5.5,0-1.4-1.1-2.9-2-4.2-8.7-11.5-17.4-23-26.3-34.4-1.3-1.7-3.5-2.8-6.9-5.4M243.8,282.6c-1.1-1.2-2.1-3.2-3.1-3.2-2.4,0-5.6.1-7.2,1.5-3.7,3.1-6.8,7-10.1,10.5-8.4,9.2-16.9,18.4-25,27.9-1.3,1.5-.4,4.6-.5,7,2.7-.3,5.5-.1,8-1,1.9-.7,3.4-2.5,4.8-4.1,9.9-11,19.8-22,29.5-33.1,1.3-1.5,2.2-3.4,3.6-5.5M246.7,308.5c-.2-4.7-3.6-6.4-7-4.3-1,.6-2,1.4-2.7,2.2-12.2,14.4-24.5,28.7-36.4,43.4-1.5,1.9-.6,5.5-.8,8.3,2.5-.7,6-.7,7.5-2.2,12-13.1,23.7-26.5,35.3-39.9,2-2.4,3.1-5.4,4.2-7.4M281.8,595.5c-2.4.3-4.1.4-5.7.7-5.7.8-7.1-1.9-7.1-6.6.1-14.3.7-28.6-.2-42.9-2-32.3-4.4-64.5-7.3-96.7-.6-6.7-3.4-13.5-6.5-19.7-1.4-3-5.8-6.5-8.9-6.5-3,0-7.8,3.5-8.9,6.4-3.4,9.5-6.5,19.2-7.9,29-6.1,41.7-5.1,83.7-4.8,125.7,0,7.8-2,12.7-10.5,15.3-1.8.5-3.6,4-3.6,6,0,11.4.7,22.8,1.1,34.1.3,9.6-4.5,16.4-13.6,19.2-7.4,2.4-12.2.6-13.8-6.4-3.6-15.9-7.5-31.9-1.1-48,.6-1.4-1.1-4.1-2.5-5.5-1.2-1.1-3.5-1.3-5.4-1.6-13.5-2.2-17.5-5.7-17.1-18.5.5-18.7,1.8-37.5,3.3-56.1,2.5-31.8,4.8-63.7,8.4-95.4,4.7-41.2,10.3-82.4,16-123.5,1.1-8.3,4.8-16.4,6.5-24.6,2.5-11.8-3.2-16.4-16-15-13.2,1.5-26.8,3.8-39.8,2.2-26.9-3.3-43-20.3-51.7-42.4-7.2-18.4-12.1-37.6-17.4-56.5-4.1-14.7-7.6-29.5-10.9-44.3-1.1-4.8-1.1-9.8-1.1-14.6,0-9.8,5.1-16.4,15.5-17.3,11.2-1,22.9-1,34,.7,13,1.9,18,9.8,15.2,21.6-2.9,12-7.1,23.6-10,35.6-4.4,18-6.1,36.2-1,54.4,5.3,18.8,17.8,30.3,39.4,32.6,15.2,1.6,30.2.6,44.7-3.9,21-6.5,32.3-22.3,33.4-45,.6-12.8-2.3-24.8-8.2-36.3-3.3-6.5-6.8-12.9-9.7-19.5-6.3-14.3-1.9-25.8,12.6-33.6,19.6-10.6,53.4-6.6,69.6,8.3,7.5,6.9,9.2,15.6,6.1,24.2-3.1,8.5-7.4,17.1-13,24.4-17.6,22.9-11.6,59.5,13.6,75,17,10.5,35,19.4,55,24.3,21.8,5.3,38.5-2.5,43.5-22.6,3.8-15.5,5.2-31.7,5.7-47.7.5-17.1-1.3-34.3-2-51.5-.7-14.3,5.3-20.3,21.1-19.9,7.5.2,15,1.4,22.3,3,10.7,2.4,14.7,8.7,12.5,18.6-.7,3-1.4,6.3-3.1,8.9-13.4,21.3-17.2,45.3-23,68.7-3,12.2-6.1,24.3-10,36.3-9.6,29.5-30.6,41.6-63.8,36.3-14.5-2.4-28.8-6.3-43-10-7.8-2-10.7-1.4-11.4,6.1-.9,9.5-.9,19.2.2,28.6,4.4,38.1,9.6,76.2,14,114.3,4.5,38.8,8.5,77.7,12.7,116.5,1.6,15.1,3.2,30.2,4.6,45.3.7,6.7-1.2,9-8.6,8.2-8.1-.9-9.7,2.5-9.2,8.7.8,11.6,1.5,23.2,1.8,34.8.3,8.7-10.1,21.2-19.1,23-1.7.3-4.8-1.1-5.8-2.5-6.9-9.7-11.2-20-10.2-32,.8-9.7.2-19.5.2-30"/>
  <g>
    <path class="st0" d="M516.1,128.2c1.8,18.8-4.5,36.9-5.4,54.5-1.4,26,5.7,145.4-5.3,156.5-3.3,3.4-19.2,7.5-21.2,5.5.2-9.9,4.1-18.5,4.7-28.6,1.6-29,4.5-151-2.2-171.2-4.8-14.6-23.6-19,5.2-34.2,26.9-14.2,57-15.1,84.6-2,30.2,14.3,37.6,59,21.1,85-12.3,19.4-38.4,44.4-61.8,30.8-18.6-10.9,13.7-13.7,21.3-17.8,45.7-24.5,16.9-119.1-41.1-78.6Z"/>
    <path class="st0" d="M1357.9,602c6.4-45.1,6.9-95.1-8.9-137.4l31.2-4.5c-5.2,44.9-5.3,90.1-4.7,135.4.2,16.1,13.1,31.1-11,37.8-9.4,0-12.5-14.1-20.1-20.1-18.3-14.3-49.6-27-70.8-40.4-22.6-14.3-43.5-30.3-65-46.2-5.1-.1-1,84-11.6,99.4-8.6,12.4-22.9,9.1-20-6.4,8.2-44.3,32-76,1.9-121.1-5-7.4-27.3-25.1-26-31.7,1.4-7,10.8-7.5,17.7-4.4,19.4,8.7,66.5,61.3,89.7,79.3,18.4,14.3,40.6,29.8,60.6,41.7,4.8,2.8,35.4,20.4,37,18.6Z"/>
    <path class="st0" d="M613.4,411.3c-8.3,32.5-71.2,12.9-97.5,27.2l-5,79.2h78c4.3,0,11.9-11.1,20,2.3,4.1,22.1-82.3,12.1-96.1,24-5.9,8.6,0,76.8-2.4,95.3-3.4,27.1-23.2,21.2-22.2-8.6,1.8-51,6.4-113,.4-164.1-2.2-19.1-20.7-29.9-6.6-46.2,2-2.3,11.5-9.1,13.1-9.1h118.1Z"/>
    <path class="st0" d="M1005.8,304.8c28.3-25.4,47.6-48.9,39.1-89.9-12.4-59.7-95.6-28.1-105.1,17.8-13.8,67.3,101.6,123.1,155.1,134.2,1.4,5.5-9.1,7.8-12.2,7.9-13,.5-52.3-14.6-66.6-20.4-9.6-3.9-44.9-25.4-48.2-25.7-5.9-.5-28.3,12.2-33.4,7.2-2.5-2.4,0-11.9,4.7-15.4,3.9-2.9,17.4,0,13.1-8.9-2.2-4.6-11.5-9.9-15.3-15.8-22.1-34.9-22.1-64.1,4.1-97.4,59.7-75.7,174.3-9.1,106.8,84.1-10.3,14.2-23.1,26.4-42.1,22.4Z"/>
    <path class="st0" d="M1603,469.3c-15.3,38.8-27.9,115.2,12.1,140.9,67,43.1,96.7-23.3,99.5-81.3,1.1-21.7-4.9-39.6-2.4-60.1,40.2-12.4,27.4,25.2,23.4,49.8-11.1,67.9-26.5,135.2-114.8,116.9-73.7-15.2-45.9-113.7-57.7-168.7l7-10.9,32.9,13.4Z"/>
    <path class="st0" d="M1095,167.4l35.1,16c-14.5,37.9-26.3,112.8,12.4,138.5,62.4,41.5,95.3-15.5,99.5-72.5,1.1-15.1-5.5-61.2-4.1-65.8,4.2-13.7,31.1-6.7,31.1,12.4,0,21.5-14.9,89.7-23.5,110.2-23.4,55.5-128.1,61.6-144.2-1-7.8-30.5-5.6-64.4-6.4-95.6-.4-14-8.9-26.1,0-42.2Z"/>
    <path class="st0" d="M666.7,469.3c-15.3,38.8-27.9,115.2,12.1,140.9,62.5,40.2,94.6-15.1,99.5-72.5,2-23.6-3.1-45.8-2.5-68.9,6.6-9.8,25.4-3.3,28.6,7.8,3.8,13.5-16.9,108.8-25.1,124.1-21.8,40.2-90.6,49-125.6,21.1-15.5-12.4-20.8-47.1-22.4-66.4-.7-8.9-4.6-100.1,2.5-99.9l32.9,13.8Z"/>
    <path class="st0" d="M872.4,293.4c-5.1-5.2-35-37.1-36.1-39.5-3.5-8.2,14.7-8.5,22.1-13.4,16-10.7,19.3-25.9,18.3-44.3-3.1-56.6-63.4-38.3-93.9-12.9-1,4.7,6.8,9.7,7.8,14.1,4,18,3.8,94.5,1.4,114.5-2.1,17.4-21.1,26.7,17.6,28.6v-75.4c7-1.2,10.3.7,15.8,4.2,20.5,13.2,49.2,61.6,64.5,69.2,7.4,3.7,16.4-4.6,17.5-9.7,2-9.4-28.5-28.8-34.9-35.3ZM816.4,247.2c-11.6-2.3-6.2-65.5,9.7-70.2,18.2-5.3,33.6,9.8,31.7,27-1.5,13.9-28.6,45.8-41.4,43.3Z"/>
    <path class="st0" d="M1157.3,624.1c-44.6,10.2-36.4-24.4-54-46-14.1-17.3-59-12.2-79.8-9.4l-27.1,59.5-30.7.5c-1.4-12,9.7-9.9,17.2-20.6,11.9-17,59.7-107.9,62.4-124.7,2-12.9-9.9-23.1,7.9-31.9,6.4-1.4,11.3,7.2,14.4,11.6,32.3,46.1,49.4,116.7,89.9,161.1ZM1063.6,495.6c-11.4-1.8-6.9.9-9.2,6.3-3,6.9-23.9,49.4-21.9,51.3h57.9"/>
    <path class="st0" d="M760.5,335.9c-41.9,14.2-39.6-42.2-54.7-52-9.6-6.3-64.3-8.4-74.6-3.4-25.9,23.6-15.7,71.4-62.4,59.9-2.9-14.2,11.2-7.5,18.1-16.4,12.6-16.2,57.9-108.5,61.8-128.1,1.8-9.1-1.2-18.8.9-27.8l14.5-4.6,96.4,172.4ZM635.7,265h62.4l-29-57.7c-12.1.1-24.7,48.1-33.4,57.7Z"/>
    <path class="st0" d="M1531.8,477.8c-.4.6-13.2,4-14.9,3.6-7-1.3-8.2-13.5-27.3-12.8-52.7,1.9-97.4,111-48.6,137.2,15.3,8.2,53.4,8.8,61.8-8.3,1.2-2.4,8.3-44,18-26.6,6.5,11.6,0,55.9,6.8,73.1-16.8,33-14.4-12.3-22.2-17.9-9.4-6.7-28.5,2.6-41.3,1.6-89.3-7.1-81.1-155.2,17.6-171,12.4-2,65.4-.3,50.2,21.1Z"/>
    <path class="st0" d="M1371.3,176.3c-48.6-9.1-64.7,35.1-62.4,75.4,18-8.4,38.6-3.1,57.9-4.4,2.1,23.2-55.6,15.4-58,17.7-4.8,43.9,20.3,77.7,66.9,71-2.4,25.1-47.9,11.5-62.2,2-43.3-28.8-34.5-139.8,6.4-166.1,12.7-8.2,49.6-19,51.3,4.4Z"/>
    <path class="st0" d="M1843.9,464.5c-52.1-7.6-60.5,31.8-66.9,73.1l62.5-2.1c-12.2,21.9-41.1,17.6-62.4,17.7,3.1,44.6,20.7,77.9,71.3,71-2.4,26.5-54.8,9.6-68.5-.6-36.7-27.4-26.7-141.1,15.3-165.3,12.1-7,48-16,48.7,6.3Z"/>
    <path class="st0" d="M956.7,464.5c-.2,27.1-51.3,2.2-57.3,20.6,5.3,40.7-34,138.1,35,130.2l-4.3,15.6c-91.6,18.5-34.1-94.7-51.1-144.5-6.7-10-45,0-51.1-4.5-2.9-2.2-5.5-17.4,1.8-17.4h127.1Z"/>
  </g>
  <g>
    <path class="st0" d="M162.7,799.6c3.1.3,5.4.4,7,.5,1.6,0,2.9.1,4,.1s3,0,4.8-.2c1.8-.1,3.7-.3,5.8-.5.2.9.7,1.8,1.3,2.8.6,1,1.8,2.5,3.5,4.5l19.6,23.1c0-2.1,0-4.2,0-6.1,0-1.9,0-3.7,0-5.4s0-2,0-3.4c0-1.4,0-2.4,0-2.9,0-3.6-.4-5.9-1.1-7-.7-1.1-2.1-1.6-4-1.6s-.6,0-.8,0c-.2,0-.4,0-.6,0v-4.1c1.6.2,3.3.4,4.9.5,1.6.1,3.4.2,5.2.2s3.5,0,5.1-.2c1.6-.1,3.3-.3,5-.5v4.1c-2,0-3.4.2-4.1.5-.7.3-1.2.9-1.5,1.8-.2.7-.4,2.1-.5,4.1-.1,2-.2,6.2-.2,12.4v4.5c-.1,3.4-.1,6.6-.2,9.6,0,3,0,5.5,0,7.6s0,.8,0,1.4c0,.6.1,1.3.2,2.1h-11.2c-.3-.6-.7-1.3-1.2-2-.5-.7-1.4-1.8-2.5-3.1l-24-28c0,1.9,0,3.9-.1,5.8,0,1.9,0,4.2,0,6.9v6.4c0,4.2.3,6.9,1,8.1.7,1.2,2,1.7,4,1.7s.8,0,1.5,0c.1,0,.2,0,.3,0v4.1c-2.4-.2-4.5-.4-6.4-.5-1.8-.1-3.4-.2-4.6-.2s-2.5,0-4.3.2c-1.8.1-3.8.3-6.3.5v-4.1c.2,0,.5,0,.8,0,.3,0,.6,0,.7,0,1.4,0,2.4-.2,3.1-.5.7-.4,1.2-1,1.6-1.9.5-1.2.8-5.4.9-12.7,0-1.4,0-2.5.1-3.2v-4.1c.2-1.1.2-2.4.2-3.8,0-1.4,0-3.8,0-7.1s-.4-4.2-1.2-5.1c-.8-.9-2.2-1.3-4.4-1.3s-.8,0-1,0-.5,0-.7,0v-4.1Z"/>
    <path class="st0" d="M245.6,823.7c0-7.3,2.8-13.4,8.3-18.2,5.5-4.8,12.4-7.3,20.8-7.3s14.7,2.4,19.8,7.2,7.7,10.9,7.7,18.4-2.7,13.3-8,18c-5.4,4.7-12.2,7.1-20.5,7.1s-15.2-2.3-20.3-6.9c-5.1-4.6-7.7-10.7-7.7-18.2ZM274.1,805.2c-4.2,0-7.4,1.5-9.6,4.6-2.3,3.1-3.4,7.5-3.4,13.1s1.1,10.7,3.4,13.9,5.5,4.8,9.9,4.8,7.1-1.5,9.2-4.5c2.1-3,3.2-7.3,3.2-13s-1.1-10.7-3.3-13.9c-2.2-3.3-5.3-4.9-9.3-4.9Z"/>
    <path class="st0" d="M326,843.3h1.2c1.3,0,2.3-.1,2.9-.4.7-.2,1.2-.6,1.5-1.2.3-.6.6-1.6.7-2.9.1-1.3.2-3.6.2-6.8v-10.9c0-1.3,0-2.9,0-4.9,0-2,0-3.3,0-4,0-3.5-.3-5.8-1-6.9-.7-1.1-2-1.7-3.8-1.7s-.7,0-1,0c-.2,0-.4,0-.6,0v-4.1c2.1.2,4,.4,6,.5,1.9.1,3.8.2,5.6.2,2.8,0,6.1-.2,10-.5,3.9-.3,6.4-.5,7.5-.5,5.9,0,10.3,1.1,13.5,3.3,3.1,2.2,4.7,5.3,4.7,9.4s-.8,4.7-2.3,6.7c-1.6,2-4,3.8-7.2,5.4l5.4,8.8c2.5,4.1,4.6,6.9,6.1,8.3,1.6,1.4,3.2,2.1,5,2.1s.3,0,.5,0c.2,0,.5,0,.9-.1v4.4c-.4,0-1,0-1.8,0-3.4.1-5.8.2-7,.2-4.4,0-7.7-.5-9.9-1.5-2.2-1-4-2.8-5.2-5.2-.6-1.2-1.6-3.3-3-6.2-1.4-3-2.5-5.1-3.4-6.5-.8,0-1.5.1-2.2.2-.7,0-1.3,0-1.9,0h-1.2v7.5c0,3.2.3,5.2,1,6,.7.8,1.9,1.2,3.8,1.2h.9v4.2c-3.5-.3-6.2-.5-8-.6-1.9-.1-3.3-.2-4.3-.2s-3,0-4.8.1c-1.9,0-4.7.3-8.6.5v-4.1ZM346.1,822.5h.2c1.9,0,3.2.1,4.1.1s1.4,0,2.2,0c.8,0,1.6,0,2.5-.2,1.6-1.2,2.7-2.6,3.4-3.9.7-1.4,1.1-2.9,1.1-4.7s-.9-4.4-2.6-5.8c-1.7-1.4-4.1-2.1-7.2-2.1s-.8,0-1.5,0c-.7,0-1.4.1-2.2.2,0,1.3,0,2.5,0,3.7,0,1.2,0,2.3,0,3.4v9.4Z"/>
    <path class="st0" d="M412.1,843.3c.2,0,.5,0,.9,0,.4,0,.6,0,.8,0,1.6,0,2.7-.2,3.4-.6.7-.4,1.2-1.2,1.5-2.4.2-.6.3-2.1.3-4.5,0-2.3,0-6.3,0-11.8v-17.2c-.7,0-1.4,0-2.1,0-.7,0-1.5,0-2.5,0-4,0-6.6.5-7.9,1.6-1.3,1.1-2.2,3.1-2.8,6.2l-4.7-1c.5-2.1,1-4.3,1.3-6.6s.7-4.8.9-7.3c3.7.2,7.3.4,10.7.5,3.5.1,6.9.2,10.4.2,7.8,0,14.1,0,18.6-.2,4.6-.1,7.9-.3,9.9-.5,0,2.4,0,4.8.3,7.1.2,2.4.4,4.7.8,7l-4.5.8c-.6-3.1-1.4-5.2-2.6-6.2-1.2-1-3.4-1.6-6.9-1.6s-1.3,0-2.1,0c-.9,0-1.9,0-3.1.2,0,4.7,0,8.3-.1,11,0,2.6,0,5.1,0,7.3v4.1c0,4,0,6.7.1,8.3,0,1.6.2,2.7.5,3.3.3.9.9,1.5,1.6,1.9.7.4,1.8.6,3.2.6s.4,0,.7,0c.3,0,.6,0,.8,0v4.1c-2.9-.2-5.6-.4-8-.5-2.4-.1-4.5-.2-6.4-.2s-3.1,0-5.3.2c-2.2.1-4.8.3-7.8.5v-4.1Z"/>
    <path class="st0" d="M474.4,799.6c3.2.2,5.7.4,7.6.5,1.9.1,3.4.2,4.6.2,1.7,0,3.6,0,5.7-.2,2.2-.1,4.7-.3,7.6-.5v4.1h-.8c-2.1,0-3.4.5-4.2,1.4-.7.9-1.1,3.4-1.1,7.4v6.8c1.5,0,3.1.2,4.6.2,1.5,0,3.2,0,4.8,0,2.8,0,5.7,0,8.7-.2.8,0,1.3,0,1.4,0h.3v-7.7c0-3.5-.4-5.7-1.1-6.6-.7-.9-2.1-1.3-4.1-1.3h-.8v-4.1c2.9.2,5.4.4,7.6.5,2.1.1,4,.2,5.7.2s2.8,0,4.7-.2c2-.1,4.5-.3,7.5-.5v4.1c-.2,0-.4,0-.6,0-.2,0-.5,0-.8,0-1.8,0-3.1.7-3.7,2-.6,1.4-1,4.9-1,10.5v9.4c0,1,0,2.3,0,4,0,1.7,0,2.8,0,3.5,0,2.7,0,4.7.2,6,.1,1.3.4,2.2.7,2.8.3.6.8,1,1.5,1.3.7.3,1.6.4,2.8.4s.3,0,.6,0c.3,0,.5,0,.6,0v4.1c-3.2-.3-5.8-.4-7.8-.5-2,0-3.7-.1-4.9-.1s-3.4,0-5.6.1-4.9.3-8,.5v-4.1c.2,0,.4,0,.6,0,.2,0,.5,0,.9,0,1.9,0,3.2-.5,3.9-1.4.7-.9,1.1-3.3,1.1-7.2v-8.3c-1.7,0-3.3-.2-5-.2-1.7,0-3.3,0-5,0s-4.5,0-7.7.2c-1,0-1.7,0-2.1,0v8.3c0,3.9.3,6.3,1,7.2.7.9,2,1.4,4,1.4h1.5v4.1c-3.2-.3-5.9-.4-8-.5s-4.1-.1-5.6-.1-2.7,0-4.6.1-4.6.3-8,.5v-4.1h1c1.3,0,2.2-.1,2.9-.4.7-.3,1.1-.7,1.4-1.3.6-1.2,1-5.8,1-13.8v-6.4c0-1.3,0-3,0-5.1,0-2.1,0-3.5,0-4.2,0-3.5-.3-5.9-1-7-.7-1.1-1.9-1.7-3.8-1.7s-.6,0-.8,0c-.2,0-.4,0-.6,0v-4.1Z"/>
    <path class="st0" d="M557.1,799.6c3.7.2,7.3.4,10.6.5,3.4.1,6.4.2,9.2.2s6.9,0,10.6-.1c3.8,0,8-.2,12.8-.4,0,2.1,0,4.3.3,6.4.2,2.2.4,4.3.8,6.6l-4,.7c-.5-2.8-1.5-4.7-3.2-5.8-1.6-1-4.5-1.6-8.8-1.6s-2.9,0-4.3,0c-1.4,0-2.8.1-4.1.2,0,.9,0,1.8,0,2.8,0,1,0,2.4,0,4.2v7.1h1.9c1,0,2.2,0,3.7,0,1.5,0,2.5,0,3,0,3.1,0,5.1-.3,6.1-1,.9-.6,1.4-1.9,1.5-3.7l3.8.5c-.2,2.2-.3,3.9-.4,5.2,0,1.3-.1,2.4-.1,3.4s0,2.2.1,4.4c0,.7,0,1.3,0,1.7l-3.9.4v-.6c0-1.9-.5-3.3-1.5-3.9-1-.7-3.2-1-6.6-1s-1.5,0-3,0-2.6,0-3.5,0h-1.2v8.7c0,.9,0,1.9,0,2.9,0,1,0,2.1,0,3.2,1.7.2,3.2.3,4.6.3,1.4,0,2.7.1,3.9.1,5.2,0,8.8-.6,10.6-1.7,1.8-1.1,3.3-3.4,4.5-6.7l4.2,1.3c-.8,2.4-1.5,4.8-2.1,7-.6,2.3-1.1,4.4-1.5,6.5-7-.3-12.4-.4-16.5-.5-4,0-7.2-.1-9.5-.1s-5,0-8.1.2c-3,.1-6.6.3-10.6.5v-4.1c.2,0,.4,0,.7,0,.3,0,.5,0,.7,0,1.1,0,2-.1,2.6-.3.6-.2,1.2-.6,1.6-1.1.5-.6.8-1.5,1-2.8.2-1.3.3-3.8.3-7.5v-10c0-1.6,0-3.3,0-5v-.7c0-.8,0-1.8,0-3.1,0-1.3,0-2.1,0-2.6,0-2.8-.4-4.6-1.1-5.4-.7-.8-2.1-1.2-4.1-1.2s-.3,0-.6,0c-.3,0-.5,0-.7,0v-4.1Z"/>
    <path class="st0" d="M627.2,843.3h1.2c1.3,0,2.3-.1,2.9-.4.7-.2,1.2-.6,1.5-1.2.3-.6.6-1.6.7-2.9.1-1.3.2-3.6.2-6.8v-10.9c0-1.3,0-2.9,0-4.9,0-2,0-3.3,0-4,0-3.5-.3-5.8-1-6.9-.7-1.1-2-1.7-3.8-1.7s-.7,0-1,0c-.2,0-.4,0-.6,0v-4.1c2.1.2,4,.4,6,.5,1.9.1,3.8.2,5.6.2,2.8,0,6.1-.2,10-.5,3.9-.3,6.4-.5,7.5-.5,5.9,0,10.3,1.1,13.5,3.3,3.1,2.2,4.7,5.3,4.7,9.4s-.8,4.7-2.3,6.7c-1.6,2-4,3.8-7.2,5.4l5.4,8.8c2.5,4.1,4.6,6.9,6.1,8.3,1.6,1.4,3.2,2.1,5,2.1s.3,0,.5,0c.2,0,.5,0,.9-.1v4.4c-.4,0-1,0-1.8,0-3.4.1-5.8.2-7,.2-4.4,0-7.7-.5-9.9-1.5-2.2-1-4-2.8-5.2-5.2-.6-1.2-1.6-3.3-3-6.2-1.4-3-2.5-5.1-3.4-6.5-.8,0-1.5.1-2.2.2-.7,0-1.3,0-1.9,0h-1.2v7.5c0,3.2.3,5.2,1,6,.7.8,1.9,1.2,3.8,1.2h.9v4.2c-3.5-.3-6.2-.5-8-.6-1.9-.1-3.3-.2-4.3-.2s-3,0-4.8.1c-1.9,0-4.7.3-8.6.5v-4.1ZM647.3,822.5h.2c1.9,0,3.2.1,4.1.1s1.4,0,2.2,0c.8,0,1.6,0,2.5-.2,1.6-1.2,2.7-2.6,3.4-3.9.7-1.4,1.1-2.9,1.1-4.7s-.9-4.4-2.6-5.8c-1.7-1.4-4.1-2.1-7.2-2.1s-.8,0-1.5,0c-.7,0-1.4.1-2.2.2,0,1.3,0,2.5,0,3.7,0,1.2,0,2.3,0,3.4v9.4Z"/>
    <path class="st0" d="M703.1,799.6c3.1.3,5.4.4,7,.5,1.6,0,2.9.1,4,.1s3,0,4.8-.2c1.8-.1,3.7-.3,5.8-.5.2.9.7,1.8,1.3,2.8.6,1,1.8,2.5,3.5,4.5l19.6,23.1c0-2.1,0-4.2,0-6.1,0-1.9,0-3.7,0-5.4s0-2,0-3.4c0-1.4,0-2.4,0-2.9,0-3.6-.4-5.9-1.1-7-.7-1.1-2.1-1.6-4-1.6s-.6,0-.8,0c-.2,0-.4,0-.6,0v-4.1c1.6.2,3.3.4,4.9.5,1.6.1,3.4.2,5.2.2s3.5,0,5.1-.2c1.6-.1,3.3-.3,5-.5v4.1c-2,0-3.4.2-4.1.5-.7.3-1.2.9-1.5,1.8-.2.7-.4,2.1-.5,4.1-.1,2-.2,6.2-.2,12.4v4.5c-.1,3.4-.1,6.6-.2,9.6,0,3,0,5.5,0,7.6s0,.8,0,1.4c0,.6.1,1.3.2,2.1h-11.2c-.3-.6-.7-1.3-1.2-2-.5-.7-1.4-1.8-2.5-3.1l-24-28c0,1.9,0,3.9-.1,5.8,0,1.9,0,4.2,0,6.9v6.4c0,4.2.3,6.9,1,8.1.7,1.2,2,1.7,4,1.7s.8,0,1.5,0c.1,0,.2,0,.3,0v4.1c-2.4-.2-4.5-.4-6.4-.5-1.8-.1-3.4-.2-4.6-.2s-2.5,0-4.3.2c-1.8.1-3.8.3-6.3.5v-4.1c.2,0,.5,0,.8,0,.3,0,.6,0,.7,0,1.4,0,2.4-.2,3.1-.5.7-.4,1.2-1,1.6-1.9.5-1.2.8-5.4.9-12.7,0-1.4,0-2.5.1-3.2v-4.1c.2-1.1.2-2.4.2-3.8,0-1.4,0-3.8,0-7.1s-.4-4.2-1.2-5.1c-.8-.9-2.2-1.3-4.4-1.3s-.8,0-1,0-.5,0-.7,0v-4.1Z"/>
    <path class="st0" d="M827.1,843.3c.2,0,.4,0,.7,0,.3,0,.6,0,1.1,0,1.9,0,3.2-.4,3.9-1.3.7-.9,1.1-2.5,1.1-5v-27.1c0-2.5-.4-4.1-1.1-5-.8-.9-2.2-1.3-4.2-1.3h-1.1v-4.1c3.5.3,6,.4,7.4.5,1.4,0,2.5.1,3.3.1,2,0,4.8-.2,8.4-.5,3.6-.3,6.2-.5,7.7-.5,6.4,0,11.4,1.3,15,3.9,3.6,2.6,5.4,6.1,5.4,10.6s-1.9,8.7-5.6,11.5c-3.7,2.8-9,4.1-15.7,4.1s-1.8,0-2.9,0c-1,0-2.1-.1-3.2-.3v5.8c0,3.7.3,6,1,7,.7,1,2.1,1.5,4.2,1.5s.3,0,.6,0c.3,0,.5,0,.7,0v4c-3.6-.2-6.4-.3-8.4-.4-2,0-3.8-.1-5.3-.1s-2.8,0-4.9.2c-2.2.1-4.8.3-8.1.5v-4.1ZM847.2,823.5c.8,0,1.5.1,2.1.2.6,0,1.2,0,1.7,0,3.2,0,5.7-.8,7.5-2.5,1.8-1.6,2.7-4,2.7-6.9s-.8-4.7-2.5-6.2c-1.7-1.5-3.9-2.3-6.8-2.3s-1.5,0-2.3.1c-.8,0-1.6.2-2.4.3,0,2.3,0,4.6,0,7.1,0,2.4,0,5.8,0,10.1Z"/>
    <path class="st0" d="M913.8,799h12.2c3,8.2,5.9,15.9,8.6,22.9,2.7,7.1,5,12.7,6.7,16.8.8,2,1.6,3.3,2.5,3.8.9.5,2.3.8,4.2.8h.4v4.1c-2.8-.2-5.3-.4-7.6-.5-2.3-.1-4.3-.2-6-.2s-3.7,0-6,.2c-2.3.1-4.8.3-7.6.5v-4.1h.5c1.9,0,3.3-.2,4.1-.7.8-.5,1.2-1.3,1.2-2.4s0-.8-.2-1.3c-.1-.5-.3-1.1-.6-1.7l-1.8-4.6c-1.2,0-2.5,0-3.9,0-1.4,0-3.5,0-6.2,0s-2.1,0-3.3,0c-1.2,0-2.4,0-3.8,0-.1.2-.3.5-.4.9-1.5,3.2-2.2,5.3-2.2,6.3s.4,2.1,1.1,2.6c.8.5,2.1.8,4.1.9v4.1c-3.5-.3-5.9-.5-7.2-.5-1.3,0-2.4-.1-3.3-.1s-2.2,0-3.6.1c-1.4,0-3.7.3-6.8.5v-4.1c3.5,0,6-1.8,7.7-5.3.2-.5.4-.9.6-1.2,3-6.2,5.8-12.4,8.6-18.6,2.8-6.3,5.5-12.7,8.2-19.2ZM916.2,809.9l-6.6,16c.7,0,1.7,0,2.8,0,1.2,0,1.9,0,2.2,0,1.1,0,3.1,0,6-.1.6,0,1,0,1.2,0l-5.6-16Z"/>
    <path class="st0" d="M977.2,843.3c.2,0,.5,0,.9,0,.4,0,.6,0,.8,0,1.6,0,2.7-.2,3.4-.6.7-.4,1.2-1.2,1.5-2.4.2-.6.3-2.1.3-4.5,0-2.3,0-6.3,0-11.8v-17.2c-.7,0-1.4,0-2.1,0-.7,0-1.5,0-2.5,0-4,0-6.6.5-7.9,1.6-1.3,1.1-2.2,3.1-2.8,6.2l-4.7-1c.5-2.1,1-4.3,1.3-6.6s.7-4.8.9-7.3c3.7.2,7.3.4,10.7.5,3.5.1,6.9.2,10.4.2,7.8,0,14.1,0,18.6-.2,4.6-.1,7.9-.3,9.9-.5,0,2.4,0,4.8.3,7.1s.4,4.7.8,7l-4.5.8c-.6-3.1-1.4-5.2-2.6-6.2-1.2-1-3.4-1.6-6.9-1.6s-1.3,0-2.1,0c-.9,0-1.9,0-3.1.2,0,4.7,0,8.3-.1,11,0,2.6,0,5.1,0,7.3v4.1c0,4,0,6.7.1,8.3,0,1.6.2,2.7.5,3.3.3.9.9,1.5,1.6,1.9.7.4,1.8.6,3.2.6s.4,0,.7,0c.3,0,.6,0,.8,0v4.1c-2.9-.2-5.6-.4-8-.5-2.4-.1-4.5-.2-6.4-.2s-3.1,0-5.3.2c-2.2.1-4.8.3-7.9.5v-4.1Z"/>
    <path class="st0" d="M1056.9,799h12.2c3,8.2,5.9,15.9,8.6,22.9,2.7,7.1,5,12.7,6.7,16.8.8,2,1.6,3.3,2.5,3.8.9.5,2.3.8,4.2.8h.4v4.1c-2.8-.2-5.3-.4-7.6-.5-2.3-.1-4.3-.2-6-.2s-3.7,0-6,.2c-2.3.1-4.8.3-7.6.5v-4.1h.5c1.9,0,3.3-.2,4.1-.7.8-.5,1.2-1.3,1.2-2.4s0-.8-.2-1.3c-.1-.5-.3-1.1-.6-1.7l-1.8-4.6c-1.2,0-2.5,0-3.9,0-1.4,0-3.5,0-6.2,0s-2.1,0-3.3,0c-1.2,0-2.4,0-3.8,0-.1.2-.3.5-.4.9-1.5,3.2-2.2,5.3-2.2,6.3s.4,2.1,1.1,2.6c.8.5,2.1.8,4.1.9v4.1c-3.5-.3-5.9-.5-7.2-.5-1.3,0-2.4-.1-3.3-.1s-2.2,0-3.6.1c-1.4,0-3.7.3-6.8.5v-4.1c3.5,0,6-1.8,7.7-5.3.2-.5.4-.9.6-1.2,3-6.2,5.8-12.4,8.6-18.6,2.8-6.3,5.5-12.7,8.1-19.2ZM1059.3,809.9l-6.6,16c.7,0,1.7,0,2.8,0,1.2,0,1.9,0,2.2,0,1.1,0,3.1,0,6-.1.6,0,1,0,1.2,0l-5.6-16Z"/>
    <path class="st0" d="M1162.1,800.8c0,2.4.1,4.8.3,7.1.2,2.3.5,4.6.9,6.9l-4.7.9c-.7-3.3-2.1-5.8-4.5-7.6-2.3-1.8-5.3-2.7-9-2.7-5.4,0-9.5,1.5-12.3,4.5-2.8,3-4.2,7.4-4.2,13.3s1.3,10.2,4,13.5c2.7,3.3,6.3,5,10.9,5s2-.1,3.1-.3c1.1-.2,2.2-.5,3.4-1v-5.3c0-3.3-.3-5.4-1-6.3-.7-.9-2-1.4-3.9-1.4-1,0-1.8,0-2.2,0v-4.3c2.8.3,5.1.4,6.9.5,1.8,0,3.3.1,4.7.1s3.6,0,5.6-.1c2,0,4.7-.2,8.1-.5v4.2h-.9c-1.7,0-2.9.4-3.5,1.1s-.9,2.5-.9,5.3v4.5c0,1.3,0,2.6.1,3.8s0,2.4.2,3.5c-4.4,1-8.5,1.8-12.2,2.3-3.7.5-6.8.8-9.4.8-8.6,0-15.5-2.2-20.7-6.7-5.2-4.5-7.8-10.4-7.8-17.8s2.8-14.2,8.5-18.9c5.7-4.7,13.2-7.1,22.6-7.1s6.1.2,9,.6,5.8,1,8.7,1.9Z"/>
    <path class="st0" d="M1192.9,823.7c0-7.3,2.8-13.4,8.3-18.2,5.5-4.8,12.4-7.3,20.8-7.3s14.7,2.4,19.8,7.2c5.1,4.8,7.7,10.9,7.7,18.4s-2.7,13.3-8,18c-5.4,4.7-12.2,7.1-20.5,7.1s-15.2-2.3-20.3-6.9c-5.1-4.6-7.7-10.7-7.7-18.2ZM1221.4,805.2c-4.2,0-7.4,1.5-9.6,4.6-2.3,3.1-3.4,7.5-3.4,13.1s1.1,10.7,3.4,13.9c2.2,3.2,5.5,4.8,9.9,4.8s7.1-1.5,9.2-4.5c2.1-3,3.2-7.3,3.2-13s-1.1-10.7-3.3-13.9c-2.2-3.3-5.3-4.9-9.3-4.9Z"/>
    <path class="st0" d="M1272.1,799.6c3.1.3,5.4.4,7,.5,1.6,0,2.9.1,4,.1s3,0,4.8-.2c1.8-.1,3.7-.3,5.8-.5.2.9.7,1.8,1.3,2.8.6,1,1.8,2.5,3.5,4.5l19.6,23.1c0-2.1,0-4.2,0-6.1,0-1.9,0-3.7,0-5.4s0-2,0-3.4c0-1.4,0-2.4,0-2.9,0-3.6-.4-5.9-1.1-7-.7-1.1-2.1-1.6-4-1.6s-.6,0-.8,0-.4,0-.6,0v-4.1c1.6.2,3.3.4,4.9.5,1.6.1,3.4.2,5.2.2s3.5,0,5.1-.2c1.6-.1,3.3-.3,5-.5v4.1c-2,0-3.4.2-4.1.5-.7.3-1.2.9-1.5,1.8-.2.7-.4,2.1-.5,4.1-.1,2-.2,6.2-.2,12.4v4.5c-.1,3.4-.1,6.6-.2,9.6,0,3,0,5.5,0,7.6s0,.8,0,1.4c0,.6.1,1.3.2,2.1h-11.2c-.3-.6-.7-1.3-1.2-2-.5-.7-1.4-1.8-2.5-3.1l-24-28c0,1.9,0,3.9-.1,5.8,0,1.9,0,4.2,0,6.9v6.4c0,4.2.3,6.9,1,8.1.7,1.2,2,1.7,4,1.7s.8,0,1.5,0c.1,0,.2,0,.3,0v4.1c-2.4-.2-4.5-.4-6.4-.5-1.8-.1-3.4-.2-4.6-.2s-2.5,0-4.3.2c-1.8.1-3.8.3-6.3.5v-4.1c.2,0,.5,0,.8,0,.3,0,.6,0,.7,0,1.4,0,2.4-.2,3.1-.5.7-.4,1.2-1,1.6-1.9.5-1.2.8-5.4.9-12.7,0-1.4,0-2.5.1-3.2v-4.1c.2-1.1.2-2.4.2-3.8,0-1.4,0-3.8,0-7.1s-.4-4.2-1.2-5.1c-.8-.9-2.2-1.3-4.4-1.3s-.8,0-1,0c-.2,0-.5,0-.7,0v-4.1Z"/>
    <path class="st0" d="M1354.7,799.6c3,.2,5.7.4,7.9.5,2.2.1,4.2.2,6,.2s2.9,0,5-.2c2-.1,4.7-.3,8-.5v4.1h-.9c-1.6,0-2.7.2-3.4.5-.7.3-1.2.9-1.4,1.8-.3.8-.5,2.3-.6,4.5-.1,2.3-.2,5.9-.2,10.9v4.1c0,1.2,0,2.8,0,4.7,0,1.9,0,3.3,0,4,0,2.2,0,3.9.2,5,.1,1.1.4,1.9.7,2.5.3.6.9,1,1.6,1.3.8.3,2,.4,3.6.4h.9v4.1c-2.8-.2-5.3-.4-7.8-.5-2.4-.1-4.6-.2-6.4-.2s-3.2,0-5.3.1-4.9.3-8.4.5v-4.1h1.1c1.7,0,2.9-.1,3.6-.4.7-.2,1.3-.6,1.5-1.2.6-1.2.9-5.8,1-13.8v-6.4c0-1.1,0-2.5,0-4.3,0-1.8,0-3,0-3.7,0-2.5,0-4.3-.2-5.5-.1-1.2-.4-2.1-.7-2.7-.3-.6-.9-1-1.6-1.3-.7-.3-1.7-.4-3.1-.4h-1.2v-4.1Z"/>
    <path class="st0" d="M1427.9,799h12.2c3,8.2,5.9,15.9,8.6,22.9,2.7,7.1,5,12.7,6.7,16.8.8,2,1.6,3.3,2.5,3.8.9.5,2.3.8,4.2.8h.4v4.1c-2.8-.2-5.3-.4-7.6-.5-2.3-.1-4.3-.2-6-.2s-3.7,0-6,.2c-2.3.1-4.8.3-7.6.5v-4.1h.5c1.9,0,3.3-.2,4.1-.7.8-.5,1.2-1.3,1.2-2.4s0-.8-.2-1.3c-.1-.5-.3-1.1-.6-1.7l-1.8-4.6c-1.2,0-2.5,0-3.9,0-1.4,0-3.5,0-6.2,0s-2.1,0-3.3,0c-1.2,0-2.4,0-3.8,0-.1.2-.3.5-.4.9-1.5,3.2-2.2,5.3-2.2,6.3s.4,2.1,1.1,2.6c.8.5,2.1.8,4.1.9v4.1c-3.5-.3-5.9-.5-7.2-.5-1.3,0-2.4-.1-3.3-.1s-2.2,0-3.6.1c-1.4,0-3.7.3-6.8.5v-4.1c3.5,0,6-1.8,7.7-5.3.2-.5.4-.9.6-1.2,3-6.2,5.8-12.4,8.6-18.6,2.8-6.3,5.5-12.7,8.1-19.2ZM1430.3,809.9l-6.6,16c.7,0,1.7,0,2.8,0,1.2,0,1.9,0,2.2,0,1.1,0,3.1,0,6-.1.6,0,1,0,1.2,0l-5.6-16Z"/>
    <path class="st0" d="M1491.9,821.9c0-2.8,1-5.1,2.9-7,1.9-1.9,4.3-2.9,7-2.9s5.1,1,7,2.9c1.9,1.9,2.9,4.3,2.9,7s-1,5.1-2.9,7c-2,2-4.3,2.9-7,2.9s-5.1-1-7-2.9c-1.9-1.9-2.9-4.3-2.9-7Z"/>
    <path class="st0" d="M1590.5,801.4v2c0,2.1,0,4.1.2,6.2.2,2.1.4,4.1.7,6.1l-4.5.9c-.5-3.6-1.9-6.3-4.1-8.2-2.3-1.9-5.3-2.8-9.2-2.8s-8.1,1.5-10.6,4.4c-2.5,2.9-3.8,7.1-3.8,12.4s1.4,10.5,4.2,13.8c2.8,3.3,6.6,4.9,11.6,4.9s5.9-.8,8.3-2.4c2.4-1.6,4.3-4,5.9-7.2l4.1,1.8c-1,2.1-1.9,4.2-2.8,6.2-.8,2-1.5,4-2.1,5.9-3.4,1.1-6.3,2-9,2.5-2.6.5-5,.8-7.3.8-8.5,0-15.3-2.3-20.5-6.9-5.2-4.6-7.8-10.6-7.8-18.1s2.8-13.7,8.5-18.4c5.7-4.8,13-7.1,21.9-7.1s5.4.2,8.2.7c2.7.5,5.4,1.3,8.2,2.3Z"/>
    <path class="st0" d="M1615.8,799.6c3.2.2,5.7.4,7.6.5,1.9.1,3.4.2,4.6.2,1.7,0,3.6,0,5.7-.2,2.2-.1,4.7-.3,7.6-.5v4.1h-.8c-2.1,0-3.4.5-4.2,1.4-.7.9-1.1,3.4-1.1,7.4v6.8c1.5,0,3.1.2,4.6.2,1.5,0,3.2,0,4.8,0,2.8,0,5.7,0,8.7-.2.8,0,1.3,0,1.4,0h.3v-7.7c0-3.5-.4-5.7-1.1-6.6-.7-.9-2.1-1.3-4.1-1.3h-.8v-4.1c2.9.2,5.4.4,7.6.5,2.1.1,4,.2,5.7.2s2.8,0,4.7-.2c2-.1,4.5-.3,7.5-.5v4.1c-.2,0-.4,0-.6,0s-.5,0-.8,0c-1.8,0-3.1.7-3.7,2-.6,1.4-1,4.9-1,10.5v9.4c0,1,0,2.3,0,4,0,1.7,0,2.8,0,3.5,0,2.7,0,4.7.2,6,.1,1.3.4,2.2.7,2.8.3.6.8,1,1.5,1.3s1.6.4,2.8.4.3,0,.6,0c.3,0,.5,0,.6,0v4.1c-3.2-.3-5.8-.4-7.8-.5-2,0-3.7-.1-4.9-.1s-3.4,0-5.6.1-4.9.3-8,.5v-4.1c.2,0,.4,0,.6,0,.2,0,.5,0,.9,0,1.9,0,3.2-.5,3.9-1.4.7-.9,1.1-3.3,1.1-7.2v-8.3c-1.7,0-3.3-.2-5-.2-1.7,0-3.3,0-5,0s-4.5,0-7.7.2c-1,0-1.7,0-2.1,0v8.3c0,3.9.3,6.3,1,7.2.7.9,2,1.4,4,1.4h1.5v4.1c-3.2-.3-5.9-.4-8-.5-2.2,0-4.1-.1-5.6-.1s-2.7,0-4.6.1c-2,0-4.6.3-8,.5v-4.1h1c1.3,0,2.2-.1,2.9-.4.7-.3,1.1-.7,1.4-1.3.6-1.2,1-5.8,1-13.8v-6.4c0-1.3,0-3,0-5.1,0-2.1,0-3.5,0-4.2,0-3.5-.3-5.9-1-7-.7-1.1-1.9-1.7-3.8-1.7s-.6,0-.8,0-.4,0-.6,0v-4.1Z"/>
    <path class="st0" d="M1698.5,799.6c3,.2,5.7.4,7.9.5,2.2.1,4.2.2,6,.2s2.9,0,5-.2c2-.1,4.7-.3,8-.5v4.1h-.9c-1.6,0-2.7.2-3.4.5-.7.3-1.2.9-1.4,1.8-.3.8-.5,2.3-.6,4.5-.1,2.3-.2,5.9-.2,10.9v4.1c0,1.2,0,2.8,0,4.7,0,1.9,0,3.3,0,4,0,2.2,0,3.9.2,5,.1,1.1.4,1.9.7,2.5.3.6.9,1,1.6,1.3.8.3,2,.4,3.6.4h.9v4.1c-2.8-.2-5.3-.4-7.8-.5-2.4-.1-4.6-.2-6.4-.2s-3.2,0-5.3.1-4.9.3-8.4.5v-4.1h1.1c1.7,0,2.9-.1,3.6-.4.7-.2,1.3-.6,1.5-1.2.6-1.2.9-5.8,1-13.8v-6.4c0-1.1,0-2.5,0-4.3,0-1.8,0-3,0-3.7,0-2.5,0-4.3-.2-5.5-.1-1.2-.4-2.1-.7-2.7-.3-.6-.9-1-1.6-1.3-.7-.3-1.7-.4-3.1-.4h-1.2v-4.1Z"/>
    <path class="st0" d="M1749.2,799.6c.8,0,2,.1,3.5.2,4.4.3,7.4.4,9,.4,2.3,0,6.2-.2,11.6-.6.9,0,1.6-.1,2-.1v4.2c-.2,0-.4,0-.6,0-.2,0-.5,0-.9,0-1.9,0-3.2.5-3.9,1.5-.7,1-1,3.1-1,6.4s0,1.6,0,3.1c0,1.5,0,2.7,0,3.7v21.9c1,.1,2.2.2,3.6.3,1.4,0,3,0,5.1,0,3.8,0,6.6-.6,8.3-1.8,1.7-1.2,3.1-3.5,4.3-6.9l4.5,1.4c-.8,2.5-1.5,4.9-2.1,7.2-.6,2.3-1.1,4.6-1.5,6.9-7.2-.3-12.4-.5-15.8-.5-3.4,0-6.3-.1-8.7-.1s-4.7,0-7.4.1c-2.7.1-6.3.3-10.8.5v-4.1h1.3c1.6,0,2.7-.2,3.4-.5.7-.3,1.2-1,1.6-1.8.2-.7.4-2,.5-3.8.1-1.8.2-5.9.2-12.2v-4.3c0-1,0-2.4,0-4.1,0-1.7,0-2.8,0-3.4,0-4-.3-6.6-1-7.8-.6-1.2-1.9-1.8-3.6-1.8s-.7,0-1,0c-.2,0-.4,0-.6,0v-4.1Z"/>
    <path class="st0" d="M1816.8,799.6c3.7.2,7.3.4,10.6.5,3.4.1,6.4.2,9.2.2s6.9,0,10.6-.1c3.8,0,8-.2,12.8-.4,0,2.1,0,4.3.3,6.4.2,2.2.4,4.3.8,6.6l-4,.7c-.5-2.8-1.5-4.7-3.2-5.8-1.6-1-4.5-1.6-8.8-1.6s-2.9,0-4.3,0-2.8.1-4.1.2c0,.9,0,1.8,0,2.8,0,1,0,2.4,0,4.2v7.1h1.9c1,0,2.2,0,3.7,0,1.5,0,2.5,0,3,0,3.1,0,5.1-.3,6.1-1,.9-.6,1.4-1.9,1.5-3.7l3.8.5c-.2,2.2-.3,3.9-.4,5.2,0,1.3-.1,2.4-.1,3.4s0,2.2.1,4.4c0,.7,0,1.3,0,1.7l-3.9.4v-.6c0-1.9-.5-3.3-1.5-3.9-1-.7-3.2-1-6.6-1s-1.5,0-3,0-2.6,0-3.5,0h-1.2v8.7c0,.9,0,1.9,0,2.9,0,1,0,2.1,0,3.2,1.7.2,3.2.3,4.6.3,1.4,0,2.7.1,3.9.1,5.2,0,8.8-.6,10.6-1.7,1.8-1.1,3.3-3.4,4.5-6.7l4.2,1.3c-.8,2.4-1.5,4.8-2.1,7-.6,2.3-1.1,4.4-1.5,6.5-7-.3-12.4-.4-16.5-.5-4,0-7.2-.1-9.5-.1s-5,0-8.1.2c-3,.1-6.6.3-10.6.5v-4.1c.2,0,.4,0,.7,0,.3,0,.5,0,.7,0,1.1,0,2-.1,2.6-.3.6-.2,1.2-.6,1.6-1.1.5-.6.8-1.5,1-2.8.2-1.3.3-3.8.3-7.5v-10c0-1.6,0-3.3,0-5v-.7c0-.8,0-1.8,0-3.1,0-1.3,0-2.1,0-2.6,0-2.8-.4-4.6-1.1-5.4-.7-.8-2.1-1.2-4.1-1.2s-.3,0-.6,0c-.3,0-.5,0-.7,0v-4.1Z"/>
  </g>
</svg>