<svg id="Capa_1" data-name="Capa 1" xmlns="http://www.w3.org/2000/svg" viewBox="0 0 62 62"><defs><style>.cls-1{fill:#9dab13;}</style></defs><title>iconos hojita</title><path class="cls-1" d="M35,14c1.44,1.48,2.75,3.07,4,4.63a63.33,63.33,0,0,0,5.22,5.78c.63.6,1.31,1.18,2,1.75a42.36,42.36,0,0,1,3.12,2.9A39.86,39.86,0,0,1,53.06,34a32.11,32.11,0,0,1,4.75,8.8c.58,2,1.6,6.83-1.33,9.92-.5.53-.68.76-.75.85a1,1,0,0,1-.27.51l-.71-.61a.24.24,0,0,0,0,.12.57.57,0,0,1,0-.13l0,0,0,0c0-.26.26-.55,1-1.35,1.8-1.89,2.21-5.25,1.1-9a31,31,0,0,0-4.62-8.52,39.42,39.42,0,0,0-3.65-4.8,38.45,38.45,0,0,0-3-2.82c-.67-.58-1.36-1.17-2-1.78a66.39,66.39,0,0,1-5.3-5.87,48.55,48.55,0,0,0-6.84-7.2,45.41,45.41,0,0,0-9.73-5.5,33.31,33.31,0,0,0-8.51-3A11.44,11.44,0,0,0,4.73,5.17,4,4,0,0,0,3.3,6.75,4.46,4.46,0,0,0,3,8.15c-.75,6.75,2.6,13.19,5.61,18.06A99.33,99.33,0,0,0,26.75,47.89,28.33,28.33,0,0,0,32.34,52a32.37,32.37,0,0,0,5.34,2,38.41,38.41,0,0,1,4.87,1.77l1.08.53a12.14,12.14,0,0,0,3.07,1.24c2.44.5,6.39-1.82,7.55-3.91l.87.48c-1.36,2.44-5.68,5-8.62,4.4a13.41,13.41,0,0,1-3.32-1.33l-1-.52A37.9,37.9,0,0,0,37.38,55a33.34,33.34,0,0,1-5.5-2.08,28.76,28.76,0,0,1-5.79-4.26A99.91,99.91,0,0,1,7.76,26.73C4.66,21.73,1.21,15.09,2,8a5.47,5.47,0,0,1,.4-1.69,5,5,0,0,1,1.76-2,12.43,12.43,0,0,1,9.16-1.74,33.78,33.78,0,0,1,8.76,3.05A47.28,47.28,0,0,1,32,11.31,31.46,31.46,0,0,1,35,14Z"/><path class="cls-1" d="M54.71,53.85l-.87.87L29.36,30c-1.68-1.7-3.42-3.45-5.21-5.08-1.63-1.49-3.37-2.93-5-4.33a67.42,67.42,0,0,1-10.42-10c-.38-.49-.73-1-1.06-1.46-1.09-1.54-2-2.87-3.76-3.54L4.3,4.47c2.08.8,3.17,2.35,4.32,4,.33.47.67,1,1,1.42,2.9,3.71,6.63,6.81,10.23,9.81,1.69,1.4,3.44,2.85,5.09,4.36,1.81,1.65,3.56,3.41,5.25,5.12Z"/><path class="cls-1" d="M53.9,54.34l.13.1c.11.4.54.54.89.65a2.34,2.34,0,0,1,.35.13,4.17,4.17,0,0,1,.94,1.64c.06.16.6.84.76,1.1a8.69,8.69,0,0,1,.55.76,1.63,1.63,0,0,0,1.25,1,1.06,1.06,0,0,0,.92-.39.83.83,0,0,0,.2-.77,1.44,1.44,0,0,0-.76-.79c-.07,0-.21-.41-.28-.45a11,11,0,0,1-2.22-2.42,6,6,0,0,0-.92-1.36,2.43,2.43,0,0,0-.52-.43L55,53Z"/><path class="cls-1" d="M7.05,17.49a8.77,8.77,0,0,0,3.49.28,31.52,31.52,0,0,0,3.71-1.21.62.62,0,0,0-.3-1.2c-1,.27-2,.87-3,1.1a7.24,7.24,0,0,1-3.52-.16.62.62,0,0,0-.34,1.19Z"/><path class="cls-1" d="M9.9,22.53c1.73-.69,3.86-.51,5.69-.43a42.23,42.23,0,0,1,5.83.62c.77.13,1.12-1,.33-1.19a46.6,46.6,0,0,0-6.57-.68,14.71,14.71,0,0,0-5.87.59c-.74.3-.14,1.37.59,1.09Z"/><path class="cls-1" d="M13.27,28.23a15.06,15.06,0,0,1,3.14.24,7.22,7.22,0,0,0,2.95-.42,21.88,21.88,0,0,1,6.8-1.17.62.62,0,0,0,0-1.23,21.75,21.75,0,0,0-6.74,1.08,7.5,7.5,0,0,1-3.38.47A13.22,13.22,0,0,0,13,27c-.79.09-.48,1.29.29,1.2Z"/><path class="cls-1" d="M15.73,31.84a60.91,60.91,0,0,0,7.52.1c2.16-.22,4.33-1.26,6.42-1.85.76-.22.47-1.41-.29-1.2-2.1.59-4.35,1.71-6.53,1.85-2.34.16-4.76-.08-7.1-.13a.62.62,0,0,0,0,1.23Z"/><path class="cls-1" d="M21,39.16c2.35.31,4.77-.31,7.08-.68l8.49-1.37c.78-.12.48-1.32-.3-1.19l-8,1.29c-2.36.38-4.85,1-7.25.72-.79-.1-.8,1.13,0,1.23Z"/><path class="cls-1" d="M22.16,36.28a8.61,8.61,0,0,0,4.78-.78A34.72,34.72,0,0,0,32.7,33c.69-.4.1-1.48-.59-1.08a31.07,31.07,0,0,1-5,2.26c-1.44.52-3,1.27-4.58,1-.78-.16-1.12,1-.34,1.18Z"/><path class="cls-1" d="M24.64,43.71c2.56-.33,4.94-1.32,7.45-1.87s5-.74,7.39-1.85c.72-.33.13-1.41-.59-1.08-2.41,1.12-5,1.22-7.5,1.83a68.42,68.42,0,0,1-7,1.78c-.79.1-.49,1.29.29,1.19Z"/><path class="cls-1" d="M29.35,47.15a39.45,39.45,0,0,0,12.16-4.91c.67-.41.08-1.5-.59-1.08A38.24,38.24,0,0,1,29.05,46a.61.61,0,0,0,.3,1.19Z"/><path class="cls-1" d="M33.33,49.21c4.21-.38,8.11-1.89,12-3.45.74-.3.14-1.38-.59-1.08-3.67,1.47-7.41,2.94-11.39,3.3-.78.07-.81,1.3,0,1.23Z"/><path class="cls-1" d="M38.19,52.26q4.91-2,9.84-4c.73-.29.13-1.37-.59-1.08q-4.94,1.95-9.84,4c-.74.3-.14,1.38.59,1.08Z"/><path class="cls-1" d="M44,54.35c1.92-1.49,4.39-2,6.35-3.43.63-.47-.23-1.35-.86-.89-2,1.45-4.41,1.94-6.34,3.43-.63.49.23,1.37.85.89Z"/><path class="cls-1" d="M51.1,49.92c-.47-.88,0-2.08.33-2.93a18.81,18.81,0,0,0,.92-3,43.89,43.89,0,0,1,1.55-6.3c.28-.74-.9-1.07-1.19-.34-.92,2.41-1.14,5-1.84,7.45-.49,1.75-1.83,3.84-.85,5.67a.62.62,0,0,0,1.08-.59Z"/><path class="cls-1" d="M47.52,46.84q1.45-6.21,3-12.39c.2-.76-1-1.1-1.18-.33Q47.8,40.3,46.33,46.5c-.18.77,1,1.11,1.19.34Z"/><path class="cls-1" d="M45.71,44.53A17.73,17.73,0,0,1,46.55,38a41.78,41.78,0,0,0,1-6.48c.08-.79-1.16-.81-1.23,0a48.44,48.44,0,0,1-1.24,7.27,16.37,16.37,0,0,0-.58,6.06c.1.79,1.3.49,1.2-.29Z"/><path class="cls-1" d="M41.69,41.85a53.57,53.57,0,0,1,1.39-7.63c.53-2,1.34-4,1-6.08-.11-.79-1.3-.49-1.19.29.31,2.23-.86,4.63-1.36,6.78a54.75,54.75,0,0,0-1.11,6.62c-.08.79,1.15.81,1.23,0Z"/><path class="cls-1" d="M37.62,36.9A65.81,65.81,0,0,0,40,26.33c.11-.78-1.12-.79-1.23,0a64.07,64.07,0,0,1-2.29,10.25.62.62,0,0,0,1.19.34Z"/><path class="cls-1" d="M34.57,33.7a54.74,54.74,0,0,0,2.62-7.23c.5-1.74,1.69-4.51.57-6.21-.43-.66-1.52-.07-1.08.59.61.92.12,2.15-.11,3.14s-.51,2-.81,3a52.25,52.25,0,0,1-2.25,6.09c-.31.72.74,1.36,1.06.63Z"/><path class="cls-1" d="M30.87,29.73c-.37-4.49,1.31-8.81,1.52-13.28,0-.79-1.2-.81-1.23,0-.21,4.47-1.89,8.78-1.52,13.28.07.79,1.3.81,1.23,0Z"/><path class="cls-1" d="M26.62,25.45c.12-3.91,1.69-7.65,2.1-11.54.08-.79-1.15-.81-1.23,0-.41,3.89-2,7.62-2.1,11.54a.62.62,0,0,0,1.23,0Z"/><path class="cls-1" d="M22.39,21.45c-.76-3.32.58-6.65.25-10-.08-.78-1.31-.81-1.23,0,.34,3.45-1,6.86-.21,10.3a.61.61,0,0,0,1.19-.29Z"/><path class="cls-1" d="M15.54,15.58c-.09-2.25-.09-4.49,0-6.74a.62.62,0,0,0-1.23,0c-.09,2.25-.09,4.49,0,6.74,0,.79,1.26.81,1.23,0Z"/><path class="cls-1" d="M3.85,12.2c1-.35,2.17.26,3.25.29a6.37,6.37,0,0,0,3-.67c.72-.34.12-1.42-.59-1.08a5.17,5.17,0,0,1-3.33.4A4.9,4.9,0,0,0,3.55,11c-.75.25-.46,1.44.3,1.2Z"/><path class="cls-1" d="M11.07,11.44C10.9,9,12.46,6.58,10.82,4.36c-.46-.63-1.35.23-.88.86,1.23,1.67-.24,4.32-.1,6.2.06.79,1.29.81,1.23,0Z"/></svg>